<?xml version="1.0" standalone="no"?>
<!DOCTYPE svg PUBLIC "-//W3C//DTD SVG 20010904//EN"
 "http://www.w3.org/TR/2001/REC-SVG-20010904/DTD/svg10.dtd">
<svg version="1.0" xmlns="http://www.w3.org/2000/svg"
 width="500.000000pt" height="500.000000pt" viewBox="0 0 500.000000 500.000000"
 preserveAspectRatio="xMidYMid meet">

<g transform="translate(0.000000,500.000000) scale(0.100000,-0.100000)"
fill="#000000" stroke="none">
<path d="M2970 4490 c-157 -29 -330 -130 -426 -248 -86 -106 -155 -280 -154
-391 1 -44 3 -47 61 -91 152 -112 265 -285 310 -475 12 -50 25 -97 29 -105 9
-21 124 -58 218 -71 137 -19 283 11 419 86 84 47 204 166 256 255 123 212 123
477 0 700 -48 85 -169 206 -256 255 -138 76 -323 111 -457 85z"/>
<path d="M1766 3760 c-372 -95 -599 -453 -521 -825 8 -38 35 -112 61 -164 85
-172 242 -304 429 -359 101 -30 257 -34 355 -8 87 22 213 84 281 139 228 183
314 523 202 800 -77 190 -239 339 -438 403 -112 36 -260 42 -369 14z"/>
<path d="M2786 3038 c-3 -12 -7 -50 -11 -82 -13 -132 -91 -305 -195 -434 -28
-35 -50 -65 -48 -66 2 -1 35 -14 73 -30 275 -108 500 -336 602 -608 50 -131
63 -210 70 -412 l6 -179 116 6 c271 15 588 87 801 183 l60 27 0 401 c0 230 -5
429 -11 466 -49 307 -275 580 -569 689 -136 50 -167 53 -537 58 l-352 5 -5
-24z"/>
<path d="M1502 2328 c-333 -47 -610 -280 -723 -606 l-34 -97 -3 -460 -3 -461
38 -11 c322 -92 533 -138 793 -169 201 -25 634 -25 810 -1 274 38 495 96 649
169 l83 40 -5 416 c-5 461 -10 500 -72 645 -53 125 -94 185 -190 281 -141 143
-313 229 -508 255 -94 13 -744 12 -835 -1z"/>
</g>
</svg>
